<?xml version="1.0" encoding="UTF-8" standalone="no"?>
<svg
   version="1.0"
   width="256pt"
   height="256pt"
   viewBox="0 0 256 256"
   preserveAspectRatio="xMidYMid"
   id="svg27"
   sodipodi:docname="wheater-dark.svg"
   inkscape:version="1.4 (e7c3feb100, 2024-10-09)"
   xmlns:inkscape="http://www.inkscape.org/namespaces/inkscape"
   xmlns:sodipodi="http://sodipodi.sourceforge.net/DTD/sodipodi-0.dtd"
   xmlns="http://www.w3.org/2000/svg"
   xmlns:svg="http://www.w3.org/2000/svg">
  <defs
     id="defs27" />
  <sodipodi:namedview
     id="namedview27"
     pagecolor="#ffffff"
     bordercolor="#000000"
     borderopacity="0.25"
     inkscape:showpageshadow="2"
     inkscape:pageopacity="0.0"
     inkscape:pagecheckerboard="0"
     inkscape:deskcolor="#d1d1d1"
     inkscape:document-units="pt"
     inkscape:zoom="1.6220643"
     inkscape:cx="126.99867"
     inkscape:cy="348.93808"
     inkscape:window-width="2532"
     inkscape:window-height="1374"
     inkscape:window-x="10"
     inkscape:window-y="48"
     inkscape:window-maximized="1"
     inkscape:current-layer="svg27" />
  <metadata
     id="metadata1">
Created by potrace 1.16, written by Peter Selinger 2001-2019
</metadata>
  <g
     transform="matrix(0.09917191,0,0,-0.09917191,-129.48508,378.67579)"
     fill="#000000"
     stroke="none"
     id="g27">
    <path
       d="m 2432,3805 c -464,-84 -863,-461 -995,-940 -91,-331 -42,-735 121,-1004 194,-319 483,-532 826,-608 90,-19 305,-22 406,-4 400,71 768,362 948,751 55,119 57,127 32,140 -12,6 -28,9 -35,6 -8,-3 -37,-53 -65,-111 -181,-370 -534,-641 -909,-695 -121,-18 -303,-8 -423,23 -371,97 -691,397 -807,756 -33,103 -41,95 127,116 l 147,17 55,53 c 31,29 71,60 89,69 l 33,18 -28,29 c -67,70 -147,60 -229,-27 -47,-50 -56,-55 -142,-78 -73,-19 -93,-22 -97,-11 -3,8 -10,59 -16,115 -28,257 54,551 224,805 55,82 204,234 300,306 82,63 239,144 343,178 406,134 863,1 1196,-349 85,-89 117,-107 125,-69 4,22 -167,192 -273,272 -164,123 -360,209 -554,241 -112,19 -297,19 -399,1 z"
       id="path1" />
    <path
       d="m 2420,3421 c 0,-27 19,-36 37,-18 18,18 9,37 -18,37 -12,0 -19,-7 -19,-19 z"
       id="path2" />
    <path
       d="m 2895,3396 c -22,-16 -15,-50 11,-54 25,-4 47,19 38,41 -8,22 -29,28 -49,13 z"
       id="path3" />
    <path
       d="m 2196,3350 c -34,-11 -73,-45 -92,-82 -18,-34 -18,-105 0,-137 13,-23 10,-28 -39,-86 -28,-34 -60,-76 -71,-93 -17,-30 -22,-32 -71,-32 -44,0 -58,-5 -86,-30 -19,-16 -45,-30 -58,-30 -67,0 -126,-78 -116,-153 10,-71 89,-126 162,-113 30,6 33,5 31,-18 -1,-19 -8,-25 -35,-30 -51,-8 -105,-51 -135,-106 -15,-27 -37,-57 -49,-66 -20,-15 -20,-16 -2,-9 11,4 27,9 36,12 8,2 26,22 39,43 33,53 74,82 126,88 59,6 97,-12 144,-68 32,-39 44,-46 65,-42 40,7 114,-16 185,-59 36,-21 60,-39 55,-39 -6,0 -55,16 -110,35 -55,19 -108,35 -119,35 -16,0 -17,-2 -5,-17 13,-15 12,-15 -17,0 -28,14 -33,14 -70,-4 -21,-10 -67,-41 -101,-68 -34,-27 -70,-54 -80,-60 -33,-18 -5,-23 44,-7 172,56 364,65 523,23 52,-14 133,-42 180,-62 47,-21 108,-47 135,-59 49,-20 50,-21 32,-39 -35,-35 -3,-39 64,-8 115,54 208,73 374,77 136,3 150,5 150,21 0,15 -13,20 -69,27 -97,13 -252,-5 -370,-45 l -95,-31 -80,43 -81,44 73,17 c 189,43 483,62 605,39 42,-8 64,1 45,20 -5,5 -60,14 -121,21 -135,13 -305,0 -487,-37 -123,-26 -200,-32 -209,-16 -3,5 40,28 95,52 80,35 97,46 84,54 -9,6 -66,43 -128,83 -136,88 -200,114 -284,113 -62,0 -153,-25 -224,-62 -39,-19 -79,-25 -79,-11 0,4 21,21 48,39 117,78 214,108 319,99 l 73,-6 23,38 c 13,20 29,48 36,60 12,22 11,23 -11,17 -12,-4 -46,-22 -73,-41 -35,-24 -62,-34 -88,-34 -20,0 -37,4 -37,8 0,19 64,104 103,137 64,55 139,86 224,92 40,3 76,10 80,16 13,21 -149,0 -210,-26 -69,-31 -159,-114 -198,-182 -25,-44 -34,-52 -75,-63 -26,-7 -49,-11 -51,-8 -3,2 12,37 33,78 45,87 163,209 240,250 97,52 222,71 319,48 48,-11 59,-5 19,11 -44,16 -184,13 -251,-6 -154,-44 -280,-161 -359,-332 -28,-62 -39,-75 -76,-94 -24,-12 -56,-31 -71,-42 -41,-28 -77,-11 -77,36 0,50 36,183 69,254 63,134 125,206 256,297 39,27 75,53 80,58 19,17 -46,-12 -83,-37 -20,-14 -40,-25 -44,-25 -12,0 -38,57 -38,84 0,14 13,40 29,58 25,28 36,33 75,33 52,0 89,-27 89,-67 v -25 l 66,25 c 135,50 354,40 491,-24 l 54,-25 17,22 c 12,16 23,20 39,16 16,-4 29,3 52,28 35,40 84,53 128,35 30,-12 83,-65 92,-92 3,-7 8,-10 11,-7 13,11 -39,94 -72,116 -58,39 -149,24 -184,-31 -10,-14 -25,-26 -35,-26 -10,0 -23,-5 -28,-10 -7,-7 -34,-1 -87,20 -42,17 -100,35 -128,40 -78,15 -211,12 -291,-6 l -70,-16 -37,35 c -20,19 -54,40 -76,46 -45,12 -40,12 -79,1 z m -263,-476 c 13,-4 10,-16 -14,-69 -16,-35 -32,-82 -35,-105 -9,-55 -26,-70 -79,-70 -59,0 -94,30 -102,87 -5,38 -2,45 26,74 26,25 38,30 66,27 27,-3 36,1 46,18 17,33 60,51 92,38 z m 431,-420 c 31,-37 76,-82 102,-100 58,-41 64,-47 39,-38 -48,17 -123,77 -153,123 -50,73 -100,73 -171,-3 -19,-20 -40,-36 -45,-36 -6,0 16,27 49,60 83,84 105,83 179,-6 z"
       id="path4" />
    <path
       d="m 2643,3173 c 9,-2 23,-2 30,0 6,3 -1,5 -18,5 -16,0 -22,-2 -12,-5 z"
       id="path5" />
    <path
       d="m 2755,3151 c 88,-25 195,-85 266,-149 49,-44 58,-50 40,-24 -57,82 -261,194 -346,191 -11,0 7,-8 40,-18 z"
       id="path6" />
    <path
       d="m 3078,3163 c -10,-2 -18,-8 -18,-13 0,-4 -19,-6 -42,-3 -37,4 -41,2 -27,-9 8,-7 36,-31 62,-52 127,-105 257,-346 257,-477 0,-38 10,-59 26,-59 9,0 14,12 14,37 0,36 1,36 15,17 8,-12 28,-27 45,-34 16,-7 30,-20 30,-29 0,-9 24,-41 53,-72 53,-55 54,-55 167,-82 62,-15 115,-26 117,-24 12,12 24,131 24,237 0,135 -24,287 -61,380 -36,92 -80,170 -95,170 -28,0 -27,-27 3,-86 78,-157 123,-384 108,-547 -10,-107 -7,-105 -121,-78 -75,17 -106,29 -136,54 -21,18 -39,37 -39,43 0,6 18,16 39,23 136,40 148,220 17,265 -67,23 -125,-1 -167,-68 -17,-27 -19,-28 -25,-10 -43,121 -109,229 -198,322 l -59,62 h 161 c 105,0 162,4 162,10 0,6 -6,12 -12,14 -20,7 -281,14 -300,9 z m 450,-398 c 36,-30 45,-69 27,-112 -16,-38 -41,-53 -90,-53 -50,0 -85,38 -85,95 0,85 83,125 148,70 z"
       id="path7" />
    <path
       d="m 2343,3130 c -24,-11 -43,-21 -43,-24 0,-3 19,3 43,13 23,10 49,20 57,24 13,5 13,5 0,6 -8,0 -34,-9 -57,-19 z"
       id="path8" />
    <path
       d="m 1983,3124 c -8,-21 13,-42 28,-27 13,13 5,43 -11,43 -6,0 -13,-7 -17,-16 z"
       id="path9" />
    <path
       d="m 2643,3103 c 9,-2 23,-2 30,0 6,3 -1,5 -18,5 -16,0 -22,-2 -12,-5 z"
       id="path10" />
    <path
       d="m 2745,3082 c 33,-10 85,-30 115,-45 41,-21 49,-22 32,-8 -28,24 -124,61 -172,67 -23,3 -14,-2 25,-14 z"
       id="path11" />
    <path
       d="m 2340,3033 c -74,-36 -202,-150 -230,-202 -7,-14 16,6 51,43 68,73 149,133 232,172 29,13 45,24 36,24 -9,0 -49,-16 -89,-37 z"
       id="path12" />
    <path
       d="m 1864,3049 c -8,-14 11,-33 25,-25 6,4 11,14 11,22 0,16 -26,19 -36,3 z"
       id="path13" />
    <path
       d="m 2816,3000 c 86,-42 192,-143 238,-227 20,-37 34,-57 30,-43 -13,49 -63,126 -121,183 -55,55 -158,117 -192,117 -9,0 12,-14 45,-30 z"
       id="path14" />
    <path
       d="m 3300,2950 c 0,-15 5,-20 18,-18 9,2 17,10 17,18 0,8 -8,16 -17,18 -13,2 -18,-3 -18,-18 z"
       id="path15" />
    <path
       d="m 2712,2921 c -17,-10 6,-21 47,-21 62,0 166,-93 207,-186 12,-29 28,-54 33,-55 15,-6 152,-141 147,-146 -2,-3 -29,15 -59,40 -30,24 -69,53 -87,63 -20,12 -43,40 -61,76 -59,116 -128,167 -227,168 -62,0 -117,-25 -155,-69 -29,-34 -131,-201 -126,-205 33,-20 98,-73 154,-122 39,-34 85,-70 103,-81 l 33,-20 96,29 c 53,15 139,33 192,39 82,10 101,16 128,40 64,55 146,47 213,-22 31,-32 45,-39 76,-39 22,0 57,-5 79,-10 l 40,-9 -67,65 c -61,59 -70,65 -105,63 -21,-2 -48,3 -60,9 -12,7 -39,12 -60,12 h -39 l -16,84 c -16,86 -60,189 -103,241 -19,23 -17,16 8,-27 61,-103 111,-308 76,-308 -24,0 -154,141 -185,200 -40,76 -139,175 -190,189 -47,13 -74,14 -92,2 z m 65,-153 c 12,-13 42,-66 68,-118 26,-52 63,-117 82,-143 43,-62 14,-48 -49,22 -30,33 -54,74 -72,124 -15,41 -36,83 -46,92 -18,16 -20,15 -56,-41 -50,-79 -98,-139 -134,-164 -27,-19 -24,-12 22,53 29,41 70,102 90,136 41,67 61,75 95,39 z"
       id="path16" />
    <path
       d="m 2860,2560 c 12,-16 24,-30 26,-30 3,0 -4,14 -16,30 -12,17 -24,30 -26,30 -3,0 4,-13 16,-30 z"
       id="path17" />
    <path
       d="m 2444,2771 c -23,-10 -45,-25 -50,-32 -6,-11 -5,-12 7,-2 8,7 35,21 59,32 25,11 41,20 35,20 -5,0 -29,-8 -51,-18 z"
       id="path18" />
    <path
       d="m 3168,2462 c -38,-23 -35,-32 10,-32 20,0 66,-7 102,-14 36,-8 67,-12 69,-10 8,8 -35,47 -66,60 -43,19 -82,17 -115,-4 z"
       id="path19" />
    <path
       d="m 3373,2152 c -6,-4 -13,-13 -15,-20 -2,-9 23,-13 97,-15 102,-2 129,7 84,30 -26,14 -147,17 -166,5 z"
       id="path20" />
    <path
       d="m 1800,2073 c -49,-7 -110,-35 -110,-49 0,-17 3,-17 65,2 30,9 76,14 114,12 67,-3 82,8 40,29 -23,12 -59,14 -109,6 z"
       id="path21" />
    <path
       d="m 2510,2038 c -14,-8 -25,-20 -25,-27 0,-11 16,-14 75,-12 41,1 77,5 79,7 3,2 -2,11 -11,20 -21,21 -87,28 -118,12 z"
       id="path22" />
    <path
       d="m 2940,2036 c -91,-21 -186,-68 -175,-86 4,-6 23,-1 45,10 93,47 262,64 370,36 60,-16 70,-14 54,12 -23,37 -186,52 -294,28 z"
       id="path23" />
    <path
       d="m 2042,2015 c -77,-22 -135,-55 -121,-70 2,-2 38,8 79,23 107,37 254,37 355,0 39,-14 79,-29 90,-33 50,-17 -38,45 -92,65 -75,29 -234,37 -311,15 z"
       id="path24" />
    <path
       d="m 3282,1964 c -12,-8 -22,-19 -22,-24 0,-5 41,-8 90,-8 64,0 90,4 90,12 0,34 -118,49 -158,20 z"
       id="path25" />
    <path
       d="m 2905,1897 c -54,-14 -167,-65 -200,-90 -40,-31 -6,-27 65,7 129,62 263,79 393,50 16,-4 27,-2 27,4 0,32 -196,51 -285,29 z"
       id="path26" />
    <path
       d="m 2008,1793 c -20,-3 -28,-10 -28,-25 0,-19 4,-20 83,-14 90,8 279,-5 455,-30 84,-12 116,-14 125,-5 27,27 -24,43 -213,66 -114,14 -355,18 -422,8 z"
       id="path27" />
  </g>
</svg>
